<svg xmlns="http://www.w3.org/2000/svg" xmlns:xlink="http://www.w3.org/1999/xlink" viewBox="0 0 841.89 694">
    <defs>
        <style>.cls-1, .cls-101, .cls-102, .cls-103, .cls-104 {
            fill: none;
            }

            .cls-2 {
            fill: #2f71a9;
            }

            .cls-10, .cls-3, .cls-84 {
            font-size: 15px;
            }

            .cls-10, .cls-28, .cls-3, .cls-55, .cls-84 {
            fill: #fff;
            }

            .cls-10, .cls-106, .cls-28, .cls-3, .cls-84 {
            font-family: Lato-Regular, Lato;
            }

            .cls-3 {
            letter-spacing: 0.01em;
            }

            .cls-4, .cls-84 {
            letter-spacing: 0.03em;
            }

            .cls-5 {
            letter-spacing: -0.01em;
            }

            .cls-6 {
            letter-spacing: -0.01em;
            }

            .cls-7 {
            letter-spacing: -0.07em;
            }

            .cls-8 {
            letter-spacing: -0.01em;
            }

            .cls-9 {
            fill: #86b2cc;
            }

            .cls-11 {
            letter-spacing: -0.02em;
            }

            .cls-12 {
            letter-spacing: -0.02em;
            }

            .cls-13 {
            letter-spacing: -0.02em;
            }

            .cls-14 {
            letter-spacing: -0.03em;
            }

            .cls-15 {
            fill: #b0c9d5;
            }

            .cls-16 {
            fill: #df8243;
            }

            .cls-17 {
            letter-spacing: -0.07em;
            }

            .cls-18 {
            letter-spacing: -0.03em;
            }

            .cls-19 {
            letter-spacing: -0.01em;
            }

            .cls-20 {
            letter-spacing: -0.07em;
            }

            .cls-21 {
            letter-spacing: -0.03em;
            }

            .cls-22 {
            letter-spacing: -0.01em;
            }

            .cls-23 {
            letter-spacing: -0.03em;
            }

            .cls-24 {
            letter-spacing: -0.01em;
            }

            .cls-25 {
            fill: #e1ba96;
            }

            .cls-26 {
            letter-spacing: -0.01em;
            }

            .cls-27 {
            fill: #ba9c64;
            }

            .cls-28 {
            font-size: 14px;
            }

            .cls-29 {
            letter-spacing: -0.02em;
            }

            .cls-30 {
            letter-spacing: -0.01em;
            }

            .cls-31 {
            letter-spacing: -0.07em;
            }

            .cls-32 {
            letter-spacing: -0.02em;
            }

            .cls-33 {
            font-size: 10px;
            }

            .cls-34 {
            letter-spacing: 0em;
            }

            .cls-35 {
            letter-spacing: -0.02em;
            }

            .cls-36 {
            letter-spacing: -0.02em;
            }

            .cls-37 {
            letter-spacing: -0.01em;
            }

            .cls-38 {
            letter-spacing: 0em;
            }

            .cls-39 {
            letter-spacing: -0.01em;
            }

            .cls-40 {
            letter-spacing: -0.02em;
            }

            .cls-41 {
            letter-spacing: -0.02em;
            }

            .cls-42 {
            letter-spacing: -0.02em;
            }

            .cls-43 {
            letter-spacing: 0.02em;
            }

            .cls-44 {
            letter-spacing: -0.04em;
            }

            .cls-45 {
            letter-spacing: -0.01em;
            }

            .cls-46, .cls-86, .cls-95 {
            font-size: 11px;
            }

            .cls-47 {
            letter-spacing: 0em;
            }

            .cls-48 {
            letter-spacing: -0.02em;
            }

            .cls-49 {
            letter-spacing: -0.01em;
            }

            .cls-50 {
            letter-spacing: 0em;
            }

            .cls-51 {
            letter-spacing: -0.01em;
            }

            .cls-52 {
            letter-spacing: -0.01em;
            }

            .cls-53 {
            letter-spacing: -0.03em;
            }

            .cls-54 {
            letter-spacing: -0.12em;
            }

            .cls-106, .cls-55 {
            font-size: 12px;
            }

            .cls-55 {
            font-family: Lato-Bold, Lato;
            font-weight: 700;
            }

            .cls-56 {
            letter-spacing: 0.02em;
            }

            .cls-57 {
            letter-spacing: 0.02em;
            }

            .cls-58 {
            letter-spacing: 0.02em;
            }

            .cls-59 {
            letter-spacing: 0.03em;
            }

            .cls-60 {
            letter-spacing: 0.02em;
            }

            .cls-61 {
            letter-spacing: 0.01em;
            }

            .cls-62 {
            letter-spacing: -0.02em;
            }

            .cls-63 {
            letter-spacing: -0.02em;
            }

            .cls-64 {
            letter-spacing: -0.03em;
            }

            .cls-65 {
            letter-spacing: -0.01em;
            }

            .cls-66 {
            letter-spacing: -0.02em;
            }

            .cls-67 {
            letter-spacing: -0.01em;
            }

            .cls-68 {
            letter-spacing: 0.02em;
            }

            .cls-69 {
            letter-spacing: 0.03em;
            }

            .cls-70 {
            letter-spacing: 0em;
            }

            .cls-71 {
            letter-spacing: 0.01em;
            }

            .cls-72 {
            letter-spacing: 0.02em;
            }

            .cls-73 {
            letter-spacing: 0.02em;
            }

            .cls-74 {
            letter-spacing: 0.02em;
            }

            .cls-75 {
            letter-spacing: 0.02em;
            }

            .cls-76 {
            letter-spacing: 0.01em;
            }

            .cls-77 {
            letter-spacing: 0.02em;
            }

            .cls-78 {
            letter-spacing: 0.02em;
            }

            .cls-79 {
            letter-spacing: 0.01em;
            }

            .cls-80 {
            letter-spacing: 0.01em;
            }

            .cls-81 {
            letter-spacing: -0.01em;
            }

            .cls-82 {
            letter-spacing: 0.02em;
            }

            .cls-83 {
            fill: #243a69;
            }

            .cls-85 {
            letter-spacing: 0.01em;
            }

            .cls-86, .cls-97 {
            letter-spacing: 0.03em;
            }

            .cls-87 {
            letter-spacing: 0em;
            }

            .cls-88 {
            letter-spacing: -0.01em;
            }

            .cls-89 {
            letter-spacing: 0.02em;
            }

            .cls-90 {
            letter-spacing: 0.02em;
            }

            .cls-91 {
            letter-spacing: 0em;
            }

            .cls-92 {
            letter-spacing: 0.01em;
            }

            .cls-93 {
            letter-spacing: 0em;
            }

            .cls-94 {
            letter-spacing: 0.02em;
            }

            .cls-95 {
            letter-spacing: 0.02em;
            }

            .cls-96 {
            letter-spacing: 0.02em;
            }

            .cls-98 {
            letter-spacing: 0.01em;
            }

            .cls-99 {
            letter-spacing: 0.01em;
            }

            .cls-100 {
            letter-spacing: 0.01em;
            }

            .cls-101, .cls-102, .cls-103, .cls-104 {
            stroke: #aeaeae;
            stroke-linecap: round;
            stroke-linejoin: bevel;
            stroke-width: 2px;
            }

            .cls-102 {
            stroke-dasharray: 0.44 4.44;
            }

            .cls-103 {
            stroke-dasharray: 0.52 5.21;
            }

            .cls-104 {
            stroke-dasharray: 0.44 3.98;
            }

            .cls-105 {
            fill: #aeaeae;
            }

            .cls-106 {
            fill: #2f3535;
            }

            .cls-107 {
            letter-spacing: -0.01em;
            }

            .cls-108 {
            letter-spacing: -0.01em;
            }

            .cls-109 {
            letter-spacing: -0.02em;
            }

            .cls-110 {
            letter-spacing: -0.02em;
            }

            .cls-111 {
            letter-spacing: -0.01em;
            }

            .cls-112 {
            letter-spacing: -0.01em;
            }

            .cls-113 {
            letter-spacing: -0.01em;
            }

            .cls-114 {
            letter-spacing: -0.01em;
            }

            .cls-115 {
            letter-spacing: 0em;
            }

            .cls-116 {
            letter-spacing: -0.01em;
            }

            .cls-117 {
            letter-spacing: -0.02em;
            }

            .cls-118 {
            letter-spacing: -0.03em;
            }

            .cls-119 {
            letter-spacing: -0.01em;
            }

            .cls-120 {
            letter-spacing: 0em;
            }

            .cls-121 {
            letter-spacing: -0.01em;
            }

            .cls-122 {
            letter-spacing: -0.01em;
            }

            .cls-123 {
            clip-path: url(#clip-path);
            }

            .cls-124 {
            clip-path: url(#clip-path-2);
            }

            .cls-125 {
            clip-path: url(#clip-path-3);
            }

            .cls-126 {
            fill: #a08070;
            }

            .cls-127 {
            clip-path: url(#clip-path-4);
            }</style>
        <clipPath id="clip-path">
            <rect class="cls-1" x="13.69" y="442.12" width="12.05" height="24"/>
        </clipPath>
        <clipPath id="clip-path-2">
            <rect class="cls-1" x="13.69" y="415.9" width="12.05" height="24"/>
        </clipPath>
        <clipPath id="clip-path-3">
            <rect class="cls-1" x="13.73" y="415.9" width="12.05" height="24"/>
        </clipPath>
        <clipPath id="clip-path-4">
            <rect class="cls-1" x="13.73" y="519.19" width="12.05" height="24"/>
        </clipPath>
    </defs>
    <title>Artboard 1</title>
    <g id="blocs">
        <g id="dariah-general-assembly">
            <path id="background" class="cls-2"
                  d="M664.08,59.6a35.86,35.86,0,0,1-35.86,35.86H215A35.86,35.86,0,0,1,179.16,59.6h0A35.86,35.86,0,0,1,215,23.74h413.2A35.86,35.86,0,0,1,664.08,59.6Z"/>
            <text class="cls-3" transform="translate(315.51 64.25)">DARIAH GENERAL ASSEMBLY</text>
        </g>
        <g id="board-of-directors">
            <path id="background-2" data-name="background" class="cls-9"
                  d="M410.19,148.57a35.86,35.86,0,0,1-35.86,35.86H215a35.86,35.86,0,0,1-35.86-35.86h0A35.86,35.86,0,0,1,215,112.7H374.33a35.86,35.86,0,0,1,35.86,35.86Z"/>
            <text class="cls-10" transform="translate(215.16 153.11)">BOARD OF DIRECTORS</text>
        </g>
        <g id="scientific-board">
            <path id="background-3" data-name="background" class="cls-15"
                  d="M664.08,148.57a35.86,35.86,0,0,1-35.86,35.86H468.91A35.86,35.86,0,0,1,433,148.57h0a35.86,35.86,0,0,1,35.86-35.86H628.22a35.86,35.86,0,0,1,35.86,35.86Z"/>
            <text class="cls-10" transform="translate(481.34 153.11)">SCIENTIFIC BOARD</text>
        </g>
        <g id="national-coordinators-commitee">
            <path id="background-4" data-name="background" class="cls-16"
                  d="M410.19,326.5a35.86,35.86,0,0,1-35.86,35.86H215a35.86,35.86,0,0,1-35.86-35.86h0A35.86,35.86,0,0,1,215,290.64H374.33a35.86,35.86,0,0,1,35.86,35.86Z"/>
            <text class="cls-10" transform="translate(196.82 324.08)">NATIONAL COORDINATOR
                <tspan class="cls-19" x="35.51" y="18">COMMITTEE - NCC</tspan>
            </text>
        </g>
        <g id="joint-research-commitee">
            <path id="background-5" data-name="background" class="cls-16"
                  d="M664.08,326.5a35.86,35.86,0,0,1-35.86,35.86H468.91A35.86,35.86,0,0,1,433,326.5h0a35.86,35.86,0,0,1,35.86-35.86H628.22a35.86,35.86,0,0,1,35.86,35.86Z"/>
            <text class="cls-10" transform="translate(487.55 324.08)">JOINT RESEARCH
                <tspan class="cls-19" x="1.75" y="18">COMMITTEE - JRC</tspan>
            </text>
        </g>
        <g id="working-groups">
            <path id="background-6" data-name="background" class="cls-25"
                  d="M803.06,520.71H486.89c-13.33,0-24.14,11.42-24.14,25.52s10.81,25.52,24.14,25.52H803.06c13.33,0,24.14-11.42,24.14-25.52S816.4,520.71,803.06,520.71Z"/>
            <text class="cls-10" transform="translate(576.49 551.32)">
                <tspan class="cls-26">WORKING GROUPS</tspan>
            </text>
        </g>
        <g id="dariah-coordination-office">
            <path id="background-7" data-name="background" class="cls-27"
                  d="M676.19,629.95
a45.86,45.86,0,0,1-45.86,45.86
H215
a45.86,45.86,0,0,1-45.86-45.86
h0
A45.86,45.86,0,0,1,215,584.08
h415.33
a45.86,45.86,0,0,1,45.86,45.86
Z"/>
            <text class="cls-28" transform="translate(212.24 620.71)">
                <tspan class="cls-29">DARIAH COORDINATION</tspan>
                <tspan x="37.13" y="14">OFFICE (DCO)</tspan>
                <tspan class="cls-33">
                    <tspan x="45.90" y="30">Secretary General</tspan>
                </tspan>
            </text>
        </g>
        <g id="cio-t">
            <path id="background-8" data-name="background" class="cls-126"
                  d="M664.08,629.95a35.86,35.86,0,0,1-35.86,35.86H468.91A35.86,35.86,0,0,1,433,629.95h0a35.86,35.86,0,0,1,35.86-35.86H628.22a35.86,35.86,0,0,1,35.86,35.86Z"/>
            <text class="cls-28" transform="translate(529.53 627.37)">
                <tspan class="cls-43">CIO-T</tspan>
                <tspan class="cls-46">
                    <tspan x="-35.6" y="16">Chief Integration</tspan>
                    <tspan x="42" y="16">Team</tspan>
                </tspan>
            </text>
        </g>
        <g id="vcc1">
            <path id="background-9" data-name="background" class="cls-25"
                  d="M634.37,407.88c0,14.09-10.81,25.52-24.14,25.52H486.89c-13.33,0-24.14-11.42-24.14-25.52h0c0-14.09,10.81-25.52,24.14-25.52H610.24c13.33,0,24.14,11.42,24.14,25.52Z"/>
            <text class="cls-55" transform="translate(503.81 405.86)">
                <tspan class="cls-56">E-Infrastructure</tspan>
                <tspan class="cls-62" x="27.94" y="13">VCC 1</tspan>
            </text>
        </g>
        <g id="vcc2">
            <path id="background-10" data-name="background" class="cls-25"
                  d="M827.2,407.88c0,14.09-10.81,25.52-24.14,25.52H679.72c-13.33,0-24.14-11.42-24.14-25.52h0c0-14.09,10.81-25.52,24.14-25.52H803.06c13.33,0,24.14,11.42,24.14,25.52Z"/>
            <text class="cls-55" transform="translate(705.92 399.86)">
                <tspan class="cls-64">Research and</tspan>
                <tspan class="cls-66" x="-11.39" y="13">Education Liaison</tspan>
                <tspan class="cls-62" x="18.66" y="26">VCC 2</tspan>
            </text>
        </g>
        <g id="vcc3">
            <path id="background-11" data-name="background" class="cls-25"
                  d="M634.37,477.05c0,14.09-10.81,25.52-24.14,25.52H486.89c-13.33,0-24.14-11.42-24.14-25.52h0c0-14.09,10.81-25.52,24.14-25.52H610.24c13.33,0,24.14,11.42,24.14,25.52Z"/>
            <text class="cls-55" transform="translate(498.74 469.21)">
                <tspan class="cls-68">Scholarly Content</tspan>
                <tspan class="cls-76">
                    <tspan x="13.29" y="13">Management</tspan>
                </tspan>
                <tspan class="cls-62" x="33.01" y="26">VCC 3</tspan>
            </text>
        </g>
        <g id="vcc4">
            <path id="background-12" data-name="background" class="cls-25"
                  d="M827.2,477.05c0,14.09-10.81,25.52-24.14,25.52H679.72c-13.33,0-24.14-11.42-24.14-25.52h0c0-14.09,10.81-25.52,24.14-25.52H803.06c13.33,0,24.14,11.42,24.14,25.52Z"/>
            <text class="cls-55" transform="translate(680.25 469.21)">
                <tspan class="cls-79">Advocacy, Impact and</tspan>
                <tspan class="cls-60">
                    <tspan x="34.99" y="13">Outreach</tspan>
                </tspan>
                <tspan class="cls-62" x="44.33" y="26">VCC 4</tspan>
            </text>
        </g>
        <g id="senior-management-team">
            <path id="background-13" data-name="background" class="cls-83"
                  d="M664.08,237.53a35.86,35.86,0,0,1-35.86,35.86H215a35.86,35.86,0,0,1-35.86-35.86h0A35.86,35.86,0,0,1,215,201.67h413.2a35.86,35.86,0,0,1,35.86,35.86Z"/>
            <text class="cls-84" transform="translate(312.6 225.83)">SENIOR MANAGEMENT TEAM
                <tspan class="cls-86">
                    <tspan x="32.62" y="13">Chair &amp; Vice Chair NCC &amp; JRC</tspan>
                </tspan>
                <tspan class="cls-95">
                    <tspan x="69.49" y="25">Officers &amp; DCO</tspan>
                </tspan>
                <tspan class="cls-86">
                    <tspan x="80.73" y="37">Chair of SB</tspan>
                </tspan>
            </text>
        </g>
    </g>
    <g id="pointillés">
        <line class="cls-101" x1="411.75" y1="326.5" x2="412" y2="326.5"/>
        <line class="cls-102" x1="416.44" y1="326.5" x2="428.89" y2="326.5"/>
        <line class="cls-101" x1="431.11" y1="326.5" x2="431.36" y2="326.5"/>
        <!--line class="cls-101" x1="411.75" y1="629.95" x2="412" y2="629.95"/>
        <line class="cls-102" x1="416.44" y1="629.95" x2="428.89" y2="629.95"/>
        <line class="cls-101" x1="431.11" y1="629.95" x2="431.36" y2="629.95"/-->
        <line class="cls-101" x1="548.56" y1="594.09" x2="548.56" y2="593.84"/>
        <line class="cls-102" x1="548.56" y1="591.05" x2="548.56" y2="570"/>
        <line class="cls-101" x1="548.56" y1="571.85" x2="548.56" y2="572"/>
        <line class="cls-101" x1="636.39" y1="407.88" x2="636.64" y2="407.88"/>
        <line class="cls-103" x1="641.85" y1="407.88" x2="650.71" y2="407.88"/>
        <line class="cls-101" x1="653.32" y1="407.88" x2="653.57" y2="407.88"/>
        <line class="cls-101" x1="548.56" y1="449.12" x2="548.56" y2="448.87"/>
        <line class="cls-104" x1="548.56" y1="444.9" x2="548.56" y2="438.04"/>
        <line class="cls-101" x1="548.56" y1="436.06" x2="548.56" y2="435.81"/>
        <line class="cls-101" x1="548.56" y1="518.12" x2="548.56" y2="517.87"/>
        <line class="cls-104" x1="548.56" y1="513.9" x2="548.56" y2="507.04"/>
        <line class="cls-101" x1="548.56" y1="505.06" x2="548.56" y2="504.81"/>
        <line class="cls-101" x1="741.39" y1="449.12" x2="741.39" y2="448.87"/>
        <line class="cls-104" x1="741.39" y1="444.9" x2="741.39" y2="438.04"/>
        <line class="cls-101" x1="741.39" y1="436.06" x2="741.39" y2="435.81"/>
        <line class="cls-101" x1="741.39" y1="518.12" x2="741.39" y2="517.87"/>
        <line class="cls-104" x1="741.39" y1="513.9" x2="741.39" y2="507.04"/>
        <line class="cls-101" x1="741.39" y1="505.06" x2="741.39" y2="504.81"/>
        <line class="cls-101" x1="548.56" y1="379.1" x2="548.56" y2="378.85"/>
        <line class="cls-104" x1="548.56" y1="374.88" x2="548.56" y2="368.03"/>
        <line class="cls-101" x1="548.56" y1="366.04" x2="548.56" y2="365.79"/>
        <line class="cls-101" x1="636.39" y1="477.05" x2="636.64" y2="477.05"/>
        <line class="cls-103" x1="641.85" y1="477.05" x2="650.71" y2="477.05"/>
        <line class="cls-101" x1="653.32" y1="477.05" x2="653.57" y2="477.05"/>
        <path class="cls-2"
              d="M739,59.21l3.76-3.93a1.3,1.3,0,0,1,2.24.87h0a1.29,1.29,0,0,1-.36.93l-2.91,3,2.91,3.06A1.3,1.3,0,0,1,742.8,65L739,61A1.3,1.3,0,0,1,739,59.21Z"/>
        <path class="cls-2"
              d="M669,59.21l3.77-3.93a1.3,1.3,0,0,1,2.24.87h0a1.3,1.3,0,0,1-.36.93l-2.91,3,2.91,3.06A1.3,1.3,0,0,1,672.74,65L669,61A1.3,1.3,0,0,1,669,59.21Z"/>
        <path class="cls-15"
              d="M669,149.14l3.77-3.93a1.3,1.3,0,0,1,2.24.87h0a1.3,1.3,0,0,1-.36.93l-2.91,3,2.91,3.06a1.3,1.3,0,0,1-1.89,1.79l-3.76-4A1.3,1.3,0,0,1,669,149.14Z"/>
        <circle class="cls-105" cx="671.67" cy="326.97" r="2.88"/>
        <path class="cls-83"
              d="M669,235.58l3.77-3.93a1.3,1.3,0,0,1,2.24.87h0a1.3,1.3,0,0,1-.36.93l-2.91,3,2.91,3.06a1.3,1.3,0,0,1-1.89,1.79l-3.76-4A1.3,1.3,0,0,1,669,235.58Z"/>
        <path class="cls-105"
              d="M798.9,328a1,1,0,0,1,0-2h.48a1,1,0,0,1,0,2Zm-5,0h-.5a1,1,0,0,1,0-2h.5a1,1,0,0,1,0,2Zm-5.5,0h-.5a1,1,0,0,1,0-2h.5a1,1,0,0,1,0,2Zm-5.5,0h-.5a1,1,0,0,1,0-2h.5a1,1,0,0,1,0,2Zm-5.5,0h-.5a1,1,0,0,1,0-2h.5a1,1,0,0,1,0,2Zm-5.5,0h-.5a1,1,0,0,1,0-2h.5a1,1,0,0,1,0,2Zm-5.5,0h-.5a1,1,0,0,1,0-2h.5a1,1,0,0,1,0,2Zm-5.5,0h-.5a1,1,0,0,1,0-2h.5a1,1,0,0,1,0,2Zm-5.5,0h-.5a1,1,0,0,1,0-2h.5a1,1,0,0,1,0,2Zm-5.5,0h-.5a1,1,0,0,1,0-2h.5a1,1,0,0,1,0,2Zm-5.5,0h-.5a1,1,0,0,1,0-2h.5a1,1,0,0,1,0,2Zm-5.5,0h-.5a1,1,0,0,1,0-2h.5a1,1,0,0,1,0,2Zm-5.5,0h-.5a1,1,0,0,1,0-2h.5a1,1,0,0,1,0,2Zm71-.54a1,1,0,0,1-.19-2l.47-.1a1,1,0,0,1,.42,2l-.51.1Zm5.26-1.58a1,1,0,0,1-.38-1.92l.45-.19a1,1,0,0,1,.79,1.84l-.47.2A1,1,0,0,1,809.62,325.86Zm4.85-2.57a1,1,0,0,1-.55-1.83l.4-.27a1,1,0,1,1,1.13,1.65l-.43.29A1,1,0,0,1,814.47,323.29Zm4.26-3.46a1,1,0,0,1-.7-1.71l.34-.34a1,1,0,0,1,1.43,1.4l-.37.37A1,1,0,0,1,818.73,319.83Zm3.52-4.21a1,1,0,0,1-.82-1.57l.27-.39a1,1,0,1,1,1.67,1.1l-.29.44A1,1,0,0,1,822.26,315.62Zm2.65-4.81a1,1,0,0,1-.4-.08,1,1,0,0,1-.52-1.32l.19-.44a1,1,0,1,1,1.85.76l-.2.48A1,1,0,0,1,824.91,310.81Zm1.67-5.24-.21,0a1,1,0,0,1-.77-1.19l.1-.47a1,1,0,0,1,2,.39l-.11.51A1,1,0,0,1,826.58,305.58Zm.62-5.45h0a1,1,0,0,1-1-1v-.48a1,1,0,1,1,2,0v.52A1,1,0,0,1,827.2,300.13Zm0-5.5a1,1,0,0,1-1-1v-.5a1,1,0,0,1,2,0v.5A1,1,0,0,1,827.2,294.62Zm0-5.5a1,1,0,0,1-1-1v-.5a1,1,0,0,1,2,0v.5A1,1,0,0,1,827.2,289.12Zm0-5.5a1,1,0,0,1-1-1v-.5a1,1,0,0,1,2,0v.5A1,1,0,0,1,827.2,283.62Zm0-5.5a1,1,0,0,1-1-1v-.5a1,1,0,0,1,2,0v.5A1,1,0,0,1,827.2,278.12Zm0-5.5a1,1,0,0,1-1-1v-.5a1,1,0,0,1,2,0v.5A1,1,0,0,1,827.2,272.62Zm0-5.5a1,1,0,0,1-1-1v-.5a1,1,0,0,1,2,0v.5A1,1,0,0,1,827.2,267.12Zm0-5.5a1,1,0,0,1-1-1v-.5a1,1,0,0,1,2,0v.5A1,1,0,0,1,827.2,261.62Zm0-5.5a1,1,0,0,1-1-1v-.5a1,1,0,0,1,2,0v.5A1,1,0,0,1,827.2,256.12Zm0-5.5a1,1,0,0,1-1-1v-.5a1,1,0,0,1,2,0v.5A1,1,0,0,1,827.2,250.62Zm0-5.5a1,1,0,0,1-1-1v-.5a1,1,0,0,1,2,0v.5A1,1,0,0,1,827.2,245.12Zm0-5.5a1,1,0,0,1-1-1v-.5a1,1,0,0,1,2,0v.5A1,1,0,0,1,827.2,239.62Zm0-5.5a1,1,0,0,1-1-1v-.5a1,1,0,0,1,2,0v.5A1,1,0,0,1,827.2,234.12Zm0-5.5a1,1,0,0,1-1-1v-.5a1,1,0,0,1,2,0v.5A1,1,0,0,1,827.2,228.62Zm0-5.5a1,1,0,0,1-1-1v-.5a1,1,0,0,1,2,0v.5A1,1,0,0,1,827.2,223.12Zm0-5.5a1,1,0,0,1-1-1v-.5a1,1,0,0,1,2,0v.5A1,1,0,0,1,827.2,217.62Zm0-5.5a1,1,0,0,1-1-1v-.5a1,1,0,0,1,2,0v.5A1,1,0,0,1,827.2,212.12Zm0-5.5a1,1,0,0,1-1-1v-.5a1,1,0,0,1,2,0v.5A1,1,0,0,1,827.2,206.62Zm0-5.5a1,1,0,0,1-1-1v-.5a1,1,0,0,1,2,0v.5A1,1,0,0,1,827.2,201.12Zm0-5.5a1,1,0,0,1-1-1v-.5a1,1,0,0,1,2,0v.5A1,1,0,0,1,827.2,195.62Zm0-5.5a1,1,0,0,1-1-1v-.5a1,1,0,0,1,2,0v.5A1,1,0,0,1,827.2,190.12Zm0-5.5a1,1,0,0,1-1-1v-.5a1,1,0,0,1,2,0v.5A1,1,0,0,1,827.2,184.62Zm0-5.5a1,1,0,0,1-1-1v-.5a1,1,0,0,1,2,0v.5A1,1,0,0,1,827.2,179.12Zm0-5.5a1,1,0,0,1-1-1v-.5a1,1,0,0,1,2,0v.5A1,1,0,0,1,827.2,173.62Zm0-5.5a1,1,0,0,1-1-1v-.5a1,1,0,0,1,2,0v.5A1,1,0,0,1,827.2,168.12Zm0-5.5a1,1,0,0,1-1-1v-.5a1,1,0,0,1,2,0v.5A1,1,0,0,1,827.2,162.62Zm0-5.5a1,1,0,0,1-1-1v-.5a1,1,0,0,1,2,0v.5A1,1,0,0,1,827.2,157.12Zm0-5.5a1,1,0,0,1-1-1v-.5a1,1,0,0,1,2,0v.5A1,1,0,0,1,827.2,151.62Zm0-5.5a1,1,0,0,1-1-1v-.5a1,1,0,0,1,2,0v.5A1,1,0,0,1,827.2,146.12Zm0-5.5a1,1,0,0,1-1-1v-.5a1,1,0,0,1,2,0v.5A1,1,0,0,1,827.2,140.62Zm0-5.5a1,1,0,0,1-1-1v-.5a1,1,0,0,1,2,0v.5A1,1,0,0,1,827.2,135.12Zm0-5.5a1,1,0,0,1-1-1v-.5a1,1,0,0,1,2,0v.5A1,1,0,0,1,827.2,129.62Zm0-5.5a1,1,0,0,1-1-1v-.5a1,1,0,0,1,2,0v.5A1,1,0,0,1,827.2,124.12Zm0-5.5a1,1,0,0,1-1-1v-.5a1,1,0,0,1,2,0v.5A1,1,0,0,1,827.2,118.62Zm0-5.5a1,1,0,0,1-1-1v-.5a1,1,0,0,1,2,0v.5A1,1,0,0,1,827.2,113.12Zm0-5.5a1,1,0,0,1-1-1v-.5a1,1,0,0,1,2,0v.5A1,1,0,0,1,827.2,107.62Zm0-5.5a1,1,0,0,1-1-1v-.5a1,1,0,0,1,2,0v.5A1,1,0,0,1,827.2,102.12Zm0-5.5a1,1,0,0,1-1-1v-.5a1,1,0,0,1,2,0v.5A1,1,0,0,1,827.2,96.62Zm0-5.5a1,1,0,0,1-1-1v-.5a1,1,0,0,1,2,0v.5A1,1,0,0,1,827.2,91.12Zm-.26-5.49a1,1,0,0,1-1-.87l-.07-.48a1,1,0,1,1,2-.3l.07.51a1,1,0,0,1-.86,1.13Zm-1.25-5.34a1,1,0,0,1-.95-.68l-.16-.45a1,1,0,0,1,1.88-.68l.17.49a1,1,0,0,1-.62,1.27A1,1,0,0,1,825.69,80.29Zm-2.27-5a1,1,0,0,1-.87-.5l-.24-.41a1,1,0,1,1,1.71-1l.26.45a1,1,0,0,1-.87,1.5Zm-3.19-4.47a1,1,0,0,1-.75-.34l-.32-.36a1,1,0,1,1,1.49-1.34l.34.38a1,1,0,0,1-.75,1.66Zm-4-3.77a1,1,0,0,1-.62-.21l-.38-.29a1,1,0,0,1,1.2-1.6l.42.32a1,1,0,0,1-.62,1.79Zm-4.64-2.94a1,1,0,0,1-.45-.11l-.44-.21a1,1,0,1,1,.87-1.8l.46.23a1,1,0,0,1-.45,1.89Zm-5.12-2a1,1,0,0,1-.27,0l-.47-.13a1,1,0,1,1,.5-1.94l.5.13a1,1,0,0,1-.27,2Zm-5.4-1H801l-.48,0a1,1,0,0,1-.94-1.06,1,1,0,0,1,1.06-.94l.52,0a1,1,0,0,1-.08,2Zm-5.5-.09h-.5a1,1,0,0,1,0-2h.5a1,1,0,0,1,0,2Zm-5.5,0h-.5a1,1,0,0,1,0-2h.5a1,1,0,0,1,0,2Zm-5.5,0h-.5a1,1,0,0,1,0-2h.5a1,1,0,0,1,0,2Zm-5.5,0h-.5a1,1,0,0,1,0-2h.5a1,1,0,0,1,0,2Zm-5.5,0h-.5a1,1,0,0,1,0-2h.5a1,1,0,0,1,0,2Zm-5.5,0h-.5a1,1,0,0,1,0-2h.5a1,1,0,0,1,0,2Zm-5.5,0h-.5a1,1,0,0,1,0-2h.5a1,1,0,0,1,0,2Zm-5.5,0h-.5a1,1,0,0,1,0-2h.5a1,1,0,0,1,0,2Zm-5.5,0h-.5a1,1,0,0,1,0-2h.5a1,1,0,0,1,0,2Zm-5.5,0h-.5a1,1,0,0,1,0-2h.5a1,1,0,0,1,0,2Z"/>
        <path class="cls-105"
              d="M720.38,151.05a1,1,0,0,1,0-2h.48a1,1,0,0,1,1,1,1,1,0,0,1-1,1h-.52Zm-5,0h-.5a1,1,0,0,1,0-2h.5a1,1,0,0,1,0,2Zm-5.5,0h-.5a1,1,0,0,1,0-2h.5a1,1,0,0,1,0,2Zm-5.5,0h-.5a1,1,0,0,1,0-2h.5a1,1,0,0,1,0,2Zm-5.5,0h-.5a1,1,0,0,1,0-2h.5a1,1,0,0,1,0,2Zm-5.5,0h-.5a1,1,0,0,1,0-2h.5a1,1,0,0,1,0,2Zm-5.5,0h-.5a1,1,0,0,1,0-2h.5a1,1,0,0,1,0,2Zm-5.5,0h-.5a1,1,0,0,1,0-2h.5a1,1,0,0,1,0,2Zm-5.5,0h-.5a1,1,0,0,1,0-2h.5a1,1,0,0,1,0,2Zm49-.53a1,1,0,0,1-.19-2l.47-.1a1,1,0,1,1,.42,2l-.51.1Zm5.26-1.58a1,1,0,0,1-.38-1.93l.44-.19a1,1,0,0,1,.79,1.84l-.48.2A1,1,0,0,1,731.1,148.94Zm4.85-2.57a1,1,0,0,1-.55-1.84l.39-.27a1,1,0,0,1,1.13,1.65l-.43.29A1,1,0,0,1,736,146.37Zm4.26-3.45a1,1,0,0,1-.7-1.71l.34-.34a1,1,0,1,1,1.43,1.4l-.36.36A1,1,0,0,1,740.22,142.91Zm3.53-4.21a1,1,0,0,1-.82-1.57l.27-.4a1,1,0,0,1,1.67,1.1l-.29.43A1,1,0,0,1,743.74,138.71Zm2.65-4.81a1,1,0,0,1-.92-1.4l.19-.44a1,1,0,1,1,1.85.76l-.2.48A1,1,0,0,1,746.39,133.9Zm1.67-5.23-.21,0a1,1,0,0,1-.77-1.19l.1-.47a1,1,0,0,1,2,.39l-.1.51A1,1,0,0,1,748.06,128.66Zm.62-5.45h0a1,1,0,0,1-1-1v-.48a1,1,0,0,1,.25-.66,1,1,0,0,1-.25-.66v-.5a1,1,0,0,1,2,0v.5a1,1,0,0,1-.24.66,1,1,0,0,1,.24.66v.52A1,1,0,0,1,748.68,123.21Zm0-7.31a1,1,0,0,1-1-1v-.5a1,1,0,0,1,2,0v.5A1,1,0,0,1,748.69,115.89Zm0-5.5a1,1,0,0,1-1-1v-.5a1,1,0,0,1,2,0v.5A1,1,0,0,1,748.69,110.39Zm0-5.5a1,1,0,0,1-1-1v-.5a1,1,0,0,1,2,0v.5A1,1,0,0,1,748.69,104.89Zm0-5.5a1,1,0,0,1-1-1v-.5a1,1,0,0,1,2,0v.5A1,1,0,0,1,748.69,99.39Zm0-5.5a1,1,0,0,1-1-1v-.5a1,1,0,0,1,2,0v.5A1,1,0,0,1,748.69,93.89Zm0-5.5a1,1,0,0,1-1-1l0-.48a1,1,0,0,1,2-.11l0,.52a1,1,0,0,1-1,1ZM747.94,83a1,1,0,0,1-1-.77l-.11-.47a1,1,0,1,1,1.94-.49l.12.5a1,1,0,0,1-.74,1.2Zm-1.77-5.2a1,1,0,0,1-.91-.59l-.2-.43a1,1,0,1,1,1.81-.86l.22.47a1,1,0,0,1-.5,1.32A1,1,0,0,1,746.17,77.76ZM743.43,73a1,1,0,0,1-.81-.41l-.29-.4A1,1,0,1,1,743.94,71l.3.41a1,1,0,0,1-.81,1.59Zm-3.6-4.14a1,1,0,0,1-.69-.27l-.35-.33a1,1,0,0,1,1.35-1.48l.38.35a1,1,0,0,1-.69,1.73Zm-4.33-3.37a1,1,0,0,1-.54-.16l-.41-.25a1,1,0,0,1,1-1.71l.44.27a1,1,0,0,1-.54,1.84ZM730.59,63a1,1,0,0,1-.36-.07l-.45-.17a1,1,0,0,1,.69-1.88l.49.18a1,1,0,0,1-.36,1.93Zm-5.29-1.48-.18,0-.47-.08a1,1,0,1,1,.31-2l.51.09a1,1,0,0,1-.18,2Zm-5.47-.43h-.5a1,1,0,0,1,0-2h.5a1,1,0,0,1,0,2Zm-5.5,0h-.5a1,1,0,0,1,0-2h.5a1,1,0,0,1,0,2Zm-5.5,0h-.5a1,1,0,0,1,0-2h.5a1,1,0,0,1,0,2Zm-5.5,0h-.5a1,1,0,0,1,0-2h.5a1,1,0,0,1,0,2Zm-5.5,0h-.5a1,1,0,0,1,0-2h.5a1,1,0,0,1,0,2Zm-5.5,0h-.5a1,1,0,0,1,0-2h.5a1,1,0,0,1,0,2Zm-5.5,0h-.5a1,1,0,0,1,0-2h.5a1,1,0,0,1,0,2Zm-5.5,0h-.5a1,1,0,0,1,0-2h.5a1,1,0,0,1,0,2Zm-5.5,0h-.5a1,1,0,0,1,0-2h.5a1,1,0,0,1,0,2Z"/>
        <path class="cls-105"
              d="M720.38,328a1,1,0,0,1,0-2h.48a1,1,0,0,1,1,1,1,1,0,0,1-1,1h-.52Zm-5,0h-.5a1,1,0,0,1,0-2h.5a1,1,0,0,1,0,2Zm-5.5,0h-.5a1,1,0,0,1,0-2h.5a1,1,0,0,1,0,2Zm-5.5,0h-.5a1,1,0,0,1,0-2h.5a1,1,0,0,1,0,2Zm-5.5,0h-.5a1,1,0,0,1,0-2h.5a1,1,0,0,1,0,2Zm-5.5,0h-.5a1,1,0,0,1,0-2h.5a1,1,0,0,1,0,2Zm-5.5,0h-.5a1,1,0,0,1,0-2h.5a1,1,0,0,1,0,2Zm-5.5,0h-.5a1,1,0,0,1,0-2h.5a1,1,0,0,1,0,2Zm-5.5,0h-.5a1,1,0,0,1,0-2h.5a1,1,0,0,1,0,2Zm49-.54a1,1,0,0,1-.19-2l.47-.1a1,1,0,0,1,.42,2l-.51.1Zm5.26-1.59a1,1,0,0,1-.38-1.94l.44-.19a1,1,0,0,1,1.31.52,1,1,0,0,1-.52,1.32l-.48.2A1,1,0,0,1,731.1,325.84Zm4.85-2.58a1,1,0,0,1-.55-1.85l.39-.27a1,1,0,0,1,1.39.26,1,1,0,0,1-.26,1.4l-.43.29A1,1,0,0,1,736,323.26Zm4.26-3.47a1,1,0,0,1-.71-.3,1,1,0,0,1,0-1.42l.34-.35a1,1,0,0,1,1.41,0,1,1,0,0,1,0,1.42l-.36.37A1,1,0,0,1,740.22,319.78Zm3.53-4.23a1,1,0,0,1-.82-1.58l.27-.4a1,1,0,0,1,1.38-.29,1,1,0,0,1,.29,1.39l-.29.43A1,1,0,0,1,743.74,315.55Zm2.65-4.84a1,1,0,0,1-.92-1.41l.19-.45a1,1,0,0,1,1.3-.55,1,1,0,0,1,.54,1.31l-.2.48A1,1,0,0,1,746.39,310.71Zm1.67-5.27-.21,0a1,1,0,0,1-.77-1.2l.1-.48a1,1,0,1,1,2,.39l-.1.51A1,1,0,0,1,748.06,305.45Zm.62-5.48h0a1,1,0,0,1-1-1v-.49a1,1,0,0,0,0-1.32v-.5a1,1,0,1,1,2,0v.5a1,1,0,0,0,0,1.32V299A1,1,0,0,1,748.68,300Zm0-7.35a1,1,0,0,1-1-1v-.5a1,1,0,1,1,2,0v.5A1,1,0,0,1,748.69,292.61Zm0-5.53a1,1,0,0,1-1-1v-.5a1,1,0,1,1,2,0v.5A1,1,0,0,1,748.69,287.08Zm0-5.53a1,1,0,0,1-1-1V280a1,1,0,1,1,2,0v.5A1,1,0,0,1,748.69,281.55Zm0-5.53a1,1,0,0,1-1-1v-.5a1,1,0,1,1,2,0v.5A1,1,0,0,1,748.69,276Zm0-5.53a1,1,0,0,1-1-1V269a1,1,0,1,1,2,0v.5A1,1,0,0,1,748.69,270.48Zm0-5.53a1,1,0,0,1-1-1l0-.48a1,1,0,1,1,2-.11l0,.52a1,1,0,0,1-1,1Zm-.73-5.47a1,1,0,0,1-1-.78l-.11-.47a1,1,0,1,1,1.94-.5l.12.51a1,1,0,0,1-.74,1.21Zm-1.77-5.23a1,1,0,0,1-.91-.59l-.2-.44a1,1,0,0,1,.47-1.34,1,1,0,0,1,1.33.48l.22.47a1,1,0,0,1-.5,1.33A1,1,0,0,1,746.17,254.26Zm-2.74-4.78a1,1,0,0,1-.81-.42l-.29-.4a1,1,0,0,1,.21-1.41,1,1,0,0,1,1.4.21l.3.41a1,1,0,0,1-.23,1.4A1,1,0,0,1,743.43,249.47Zm-3.6-4.16a1,1,0,0,1-.69-.27l-.35-.33a1,1,0,0,1-.06-1.42,1,1,0,0,1,1.41-.06l.38.35a1,1,0,0,1,0,1.42A1,1,0,0,1,739.83,245.31Zm-4.33-3.39a1,1,0,0,1-.54-.16l-.41-.26a1,1,0,0,1-.33-1.38,1,1,0,0,1,1.37-.34l.44.28a1,1,0,0,1,.31,1.39A1,1,0,0,1,735.5,241.92Zm-4.9-2.49a1,1,0,0,1-.36-.07l-.45-.17a1,1,0,0,1,.69-1.89l.49.19a1,1,0,0,1-.36,1.94Zm-5.29-1.49-.18,0-.47-.08a1,1,0,0,1,.31-2l.51.09a1,1,0,0,1-.18,2Zm-5.47-.44h-.5a1,1,0,0,1,0-2h.5a1,1,0,0,1,0,2Zm-5.5,0h-.5a1,1,0,0,1,0-2h.5a1,1,0,0,1,0,2Zm-5.5,0h-.5a1,1,0,0,1,0-2h.5a1,1,0,0,1,0,2Zm-5.5,0h-.5a1,1,0,0,1,0-2h.5a1,1,0,0,1,0,2Zm-5.5,0h-.5a1,1,0,0,1,0-2h.5a1,1,0,0,1,0,2Zm-5.5,0h-.5a1,1,0,0,1,0-2h.5a1,1,0,0,1,0,2Zm-5.5,0h-.5a1,1,0,0,1,0-2h.5a1,1,0,0,1,0,2Zm-5.5,0h-.5a1,1,0,0,1,0-2h.5a1,1,0,0,1,0,2Zm-5.5,0h-.5a1,1,0,0,1,0-2h.5a1,1,0,0,1,0,2Z"/>
        <path class="cls-2"
              d="M174.63,59.21l-3.76-3.93a1.3,1.3,0,0,0-2.24.87h0a1.3,1.3,0,0,0,.36.93l2.91,3L169,63.17A1.3,1.3,0,0,0,170.87,65l3.76-4A1.3,1.3,0,0,0,174.63,59.21Z"/>
        <path class="cls-9"
              d="M174.63,149.14l-3.76-3.93a1.3,1.3,0,0,0-2.24.87h0a1.3,1.3,0,0,0,.36.93l2.91,3L169,153.1a1.3,1.3,0,0,0,1.89,1.79l3.76-4A1.3,1.3,0,0,0,174.63,149.14Z"/>
        <circle class="cls-105" cx="171.94" cy="326.97" r="2.88"/>
        <path class="cls-83"
              d="M174.63,235.58l-3.76-3.93a1.3,1.3,0,0,0-2.24.87h0a1.3,1.3,0,0,0,.36.93l2.91,3L169,239.54a1.3,1.3,0,0,0,1.89,1.79l3.76-4A1.3,1.3,0,0,0,174.63,235.58Z"/>
        <path class="cls-105"
              d="M123.22,151.05h-.51a1,1,0,0,1-1-1,1,1,0,0,1,1-1h.49a1,1,0,0,1,0,2Zm4-1a1,1,0,0,1,1-1h.5a1,1,0,0,1,0,2h-.5A1,1,0,0,1,127.22,150.05Zm5.5,0a1,1,0,0,1,1-1h.5a1,1,0,0,1,0,2h-.5A1,1,0,0,1,132.72,150.05Zm5.5,0a1,1,0,0,1,1-1h.5a1,1,0,0,1,0,2h-.5A1,1,0,0,1,138.22,150.05Zm5.5,0a1,1,0,0,1,1-1h.5a1,1,0,0,1,0,2h-.5A1,1,0,0,1,143.72,150.05Zm5.5,0a1,1,0,0,1,1-1h.5a1,1,0,1,1,0,2h-.5A1,1,0,0,1,149.22,150.05Zm5.5,0a1,1,0,0,1,1-1h.5a1,1,0,0,1,0,2h-.5A1,1,0,0,1,154.72,150.05Zm5.5,0a1,1,0,0,1,1-1h.5a1,1,0,1,1,0,2h-.5A1,1,0,0,1,160.22,150.05Zm5.5,0a1,1,0,0,1,1-1h.5a1,1,0,0,1,0,2h-.5A1,1,0,0,1,165.72,150.05Zm-48.16.45-.51-.1a1,1,0,0,1,.42-2l.47.1a1,1,0,0,1-.19,2Zm-5.44-1.64-.48-.2a1,1,0,0,1,.79-1.84l.44.19a1,1,0,1,1-.76,1.85Zm-5-2.66-.43-.29a1,1,0,1,1,1.13-1.65l.4.27a1,1,0,1,1-1.1,1.67Zm-4.42-3.58-.36-.36a1,1,0,0,1,1.43-1.4l.34.34a1,1,0,0,1-1.41,1.42ZM99,138.27l-.29-.43a1,1,0,1,1,1.67-1.1l.27.4A1,1,0,0,1,99,138.27Zm-2.74-5-.2-.48a1,1,0,1,1,1.85-.76l.19.44a1,1,0,1,1-1.84.79Zm-1.73-5.42-.1-.51a1,1,0,0,1,2-.39l.1.47a1,1,0,0,1-.77,1.19l-.21,0A1,1,0,0,1,94.57,127.87Zm-.65-5.65v-.52a1,1,0,0,1,.25-.66,1,1,0,0,1-.25-.66v-.5a1,1,0,0,1,2,0v.5a1,1,0,0,1-.25.66,1,1,0,0,1,.25.66v.48a1,1,0,0,1-1,1h0A1,1,0,0,1,93.92,122.22Zm0-7.33v-.5a1,1,0,0,1,2,0v.5a1,1,0,0,1-2,0Zm0-5.5v-.5a1,1,0,0,1,2,0v.5a1,1,0,0,1-2,0Zm0-5.5v-.5a1,1,0,0,1,2,0v.5a1,1,0,0,1-2,0Zm0-5.5v-.5a1,1,0,0,1,2,0v.5a1,1,0,0,1-2,0Zm0-5.5v-.5a1,1,0,0,1,2,0v.5a1,1,0,0,1-2,0Zm1-4.5a1,1,0,0,1-1-1l0-.52a1,1,0,0,1,2,.11l0,.48a1,1,0,0,1-1,1Zm.53-5.47a1,1,0,0,1-.75-1.2l.12-.5a1,1,0,1,1,1.94.49l-.11.47a1,1,0,0,1-1,.77ZM97,77.67a1,1,0,0,1-.5-1.32l.22-.47a1,1,0,0,1,1.81.86l-.2.43a1,1,0,0,1-.91.59A1,1,0,0,1,97,77.67Zm2.57-4.86a1,1,0,0,1-.23-1.4l.3-.41a1,1,0,1,1,1.61,1.19l-.29.4a1,1,0,0,1-1.4.23Zm3.46-4.27a1,1,0,0,1,0-1.41l.38-.35a1,1,0,0,1,1.35,1.48l-.35.33a1,1,0,0,1-1.41,0ZM107.27,65a1,1,0,0,1,.31-1.38l.44-.27a1,1,0,0,1,1,1.71l-.41.25a1,1,0,0,1-1.38-.31Zm4.81-2.65a1,1,0,0,1,.57-1.29l.49-.18a1,1,0,0,1,.69,1.88l-.45.17a1,1,0,0,1-1.29-.57Zm5.24-1.67a1,1,0,0,1,.81-1.16l.51-.09a1,1,0,1,1,.31,2l-.47.08-.18,0A1,1,0,0,1,117.32,60.71Zm5.46-.61a1,1,0,0,1,1-1h.5a1,1,0,0,1,0,2h-.5A1,1,0,0,1,122.78,60.1Zm5.5,0a1,1,0,0,1,1-1h.5a1,1,0,0,1,0,2h-.5A1,1,0,0,1,128.28,60.1Zm5.5,0a1,1,0,0,1,1-1h.5a1,1,0,0,1,0,2h-.5A1,1,0,0,1,133.78,60.1Zm5.5,0a1,1,0,0,1,1-1h.5a1,1,0,0,1,0,2h-.5A1,1,0,0,1,139.28,60.1Zm5.5,0a1,1,0,0,1,1-1h.5a1,1,0,0,1,0,2h-.5A1,1,0,0,1,144.78,60.1Zm5.5,0a1,1,0,0,1,1-1h.5a1,1,0,0,1,0,2h-.5A1,1,0,0,1,150.28,60.1Zm5.5,0a1,1,0,0,1,1-1h.5a1,1,0,0,1,0,2h-.5A1,1,0,0,1,155.78,60.1Zm5.5,0a1,1,0,0,1,1-1h.5a1,1,0,0,1,0,2h-.5A1,1,0,0,1,161.28,60.1Zm5.5,0a1,1,0,0,1,1-1h.5a1,1,0,0,1,0,2h-.5A1,1,0,0,1,166.78,60.1Z"/>
        <path class="cls-105"
              d="M123.22,328h-.51a1,1,0,0,1-1-1,1,1,0,0,1,1-1h.49a1,1,0,0,1,0,2Zm4-1a1,1,0,0,1,1-1h.5a1,1,0,0,1,0,2h-.5A1,1,0,0,1,127.22,327Zm5.5,0a1,1,0,0,1,1-1h.5a1,1,0,0,1,0,2h-.5A1,1,0,0,1,132.72,327Zm5.5,0a1,1,0,0,1,1-1h.5a1,1,0,0,1,0,2h-.5A1,1,0,0,1,138.22,327Zm5.5,0a1,1,0,0,1,1-1h.5a1,1,0,0,1,0,2h-.5A1,1,0,0,1,143.72,327Zm5.5,0a1,1,0,0,1,1-1h.5a1,1,0,0,1,0,2h-.5A1,1,0,0,1,149.22,327Zm5.5,0a1,1,0,0,1,1-1h.5a1,1,0,0,1,0,2h-.5A1,1,0,0,1,154.72,327Zm5.5,0a1,1,0,0,1,1-1h.5a1,1,0,0,1,0,2h-.5A1,1,0,0,1,160.22,327Zm5.5,0a1,1,0,0,1,1-1h.5a1,1,0,0,1,0,2h-.5A1,1,0,0,1,165.72,327Zm-48.16.45-.51-.1a1,1,0,0,1,.42-2l.47.1a1,1,0,0,1-.19,2Zm-5.44-1.65-.48-.2a1,1,0,0,1-.52-1.32,1,1,0,0,1,1.32-.52l.44.19a1,1,0,0,1-.38,1.94A1,1,0,0,1,112.12,325.76Zm-5-2.67-.43-.29a1,1,0,0,1-.26-1.4,1,1,0,0,1,1.39-.26l.4.27a1,1,0,0,1-.55,1.85A1,1,0,0,1,107.11,323.09Zm-4.42-3.6-.36-.37a1,1,0,0,1,0-1.42,1,1,0,0,1,1.41,0l.34.35a1,1,0,0,1,0,1.42,1,1,0,0,1-1.42,0ZM99,315.11l-.29-.43a1,1,0,0,1,.28-1.39,1,1,0,0,1,1.39.29l.27.4a1,1,0,0,1-.26,1.4,1,1,0,0,1-1.39-.26Zm-2.74-5-.2-.48a1,1,0,0,1,.54-1.31,1,1,0,0,1,1.3.55l.19.45a1,1,0,0,1-.52,1.32,1,1,0,0,1-.4.08A1,1,0,0,1,96.3,310.1Zm-1.73-5.45-.1-.51a1,1,0,1,1,2-.39l.1.48a1,1,0,0,1-.77,1.2l-.21,0A1,1,0,0,1,94.57,304.65ZM93.92,299v-.52a1,1,0,0,0,0-1.32v-.5a1,1,0,1,1,2,0v.5a1,1,0,0,0,0,1.32v.49a1,1,0,0,1-1,1h0A1,1,0,0,1,93.92,299Zm0-7.37v-.5a1,1,0,1,1,2,0v.5a1,1,0,1,1-2,0Zm0-5.53v-.5a1,1,0,1,1,2,0v.5a1,1,0,1,1-2,0Zm0-5.53V280a1,1,0,1,1,2,0v.5a1,1,0,1,1-2,0Zm0-5.53v-.5a1,1,0,1,1,2,0v.5a1,1,0,1,1-2,0Zm0-5.53V269a1,1,0,1,1,2,0v.5a1,1,0,1,1-2,0Zm1-4.53a1,1,0,0,1-1-1l0-.52a1,1,0,1,1,2,.11l0,.48a1,1,0,0,1-1,1Zm.53-5.5a1,1,0,0,1-.75-1.21l.12-.51a1,1,0,1,1,1.94.5l-.11.47a1,1,0,0,1-1,.78ZM97,254.17a1,1,0,0,1-.5-1.33l.22-.47a1,1,0,0,1,1.33-.48,1,1,0,0,1,.47,1.34l-.2.44a1,1,0,0,1-.91.59A1,1,0,0,1,97,254.17Zm2.57-4.88a1,1,0,0,1-.23-1.4l.3-.41a1,1,0,0,1,1.4-.21,1,1,0,0,1,.21,1.41l-.29.4a1,1,0,0,1-1.4.23Zm3.46-4.29a1,1,0,0,1,0-1.42l.38-.35a1,1,0,0,1,1.41.06,1,1,0,0,1-.06,1.42l-.35.33a1,1,0,0,1-1.41,0Zm4.22-3.54a1,1,0,0,1,.31-1.39l.44-.28a1,1,0,0,1,1.37.34,1,1,0,0,1-.33,1.38l-.41.26a1,1,0,0,1-1.38-.31Zm4.81-2.66a1,1,0,0,1,.57-1.3l.49-.19a1,1,0,0,1,.69,1.89l-.45.17a1,1,0,0,1-.36.07A1,1,0,0,1,112.08,238.79Zm5.24-1.67a1,1,0,0,1,.81-1.17l.51-.09a1,1,0,0,1,.31,2l-.47.08-.18,0A1,1,0,0,1,117.32,237.11Zm5.46-.61a1,1,0,0,1,1-1h.5a1,1,0,0,1,0,2h-.5A1,1,0,0,1,122.78,236.5Zm5.5,0a1,1,0,0,1,1-1h.5a1,1,0,0,1,0,2h-.5A1,1,0,0,1,128.28,236.5Zm5.5,0a1,1,0,0,1,1-1h.5a1,1,0,0,1,0,2h-.5A1,1,0,0,1,133.78,236.5Zm5.5,0a1,1,0,0,1,1-1h.5a1,1,0,0,1,0,2h-.5A1,1,0,0,1,139.28,236.5Zm5.5,0a1,1,0,0,1,1-1h.5a1,1,0,0,1,0,2h-.5A1,1,0,0,1,144.78,236.5Zm5.5,0a1,1,0,0,1,1-1h.5a1,1,0,0,1,0,2h-.5A1,1,0,0,1,150.28,236.5Zm5.5,0a1,1,0,0,1,1-1h.5a1,1,0,0,1,0,2h-.5A1,1,0,0,1,155.78,236.5Zm5.5,0a1,1,0,0,1,1-1h.5a1,1,0,0,1,0,2h-.5A1,1,0,0,1,161.28,236.5Zm5.5,0a1,1,0,0,1,1-1h.5a1,1,0,0,1,0,2h-.5A1,1,0,0,1,166.78,236.5Z"/>
    </g>
    <g id="légende">
        <circle class="cls-15" cx="25.73" cy="454.81" r="8.83"/><!-- executive body / right -->
        <circle class="cls-1" cx="25.73" cy="454.81" r="8.83"/>
        <circle class="cls-15" cx="25.73" cy="480.29" r="8.83"/><!-- operational organ blue -->
        <circle class="cls-16" cx="25.73" cy="480.29" r="8.83"/><!-- operational organ color orange -->
        <circle class="cls-15" cx="25.73" cy="505.76" r="8.83"/><!-- Dariah activities blue -->
        <circle class="cls-25" cx="25.73" cy="505.76" r="8.83"/><!-- Dariah activities color orange dirt -->
        <circle class="cls-27" cx="25.73" cy="531.24" r="8.83"/><!-- Administrative support color brown -->
        <text class="cls-106" transform="translate(42.86 433.52)">
            <tspan class="cls-107">Governing Body</tspan>
            <tspan x="0" y="25.5">Executive Body - Governance</tspan>
            <tspan class="cls-112" x="0" y="51">Operational Organ</tspan>
            <tspan class="cls-117" x="0" y="76.5">DARIAH Activities</tspan>
            <tspan class="cls-121" x="0" y="102">Administrative Support</tspan>
        </text>
        <g class="cls-123">
            <circle class="cls-9" cx="25.73" cy="454.81" r="8.83"/>
        </g>
        <circle class="cls-83" cx="25.73" cy="428.6" r="8.83"/>
        <circle class="cls-1" cx="25.73" cy="428.6" r="8.83"/>
        <g class="cls-124">
            <circle class="cls-2" cx="25.73" cy="428.6" r="8.83"/>
        </g>
        <g class="cls-125">
            <ellipse class="cls-1" cx="25.32" cy="428.6" rx="9.28" ry="8.83"/>
        </g>
        <g class="cls-127"><!-- Administrative support color dark brown -->
            <circle class="cls-126" cx="25.32" cy="531.24" r="8.83"/>
        </g>
    </g>
</svg>